HIERARCHY
ROOT Hips
{
	OFFSET 0.000000 0.000000 0.000000 
	CHANNELS 6 Xposition Yposition Zposition Yrotation Zrotation Xrotation 
	JOINT Lumbar
	{
		OFFSET 0.000000 0.000000 0.000000 
		CHANNELS 3 Zrotation Xrotation Yrotation
		JOINT Neck
		{
			OFFSET 0.000000 0.445665 0.000000 
			CHANNELS 3 Zrotation Xrotation Yrotation
			End Site
			{
				OFFSET 0.000000 0.227535 0.000000 
			}
		}
		JOINT RightShoulder
		{
			OFFSET 0.019635 0.377685 0.194865 
			CHANNELS 3 Zrotation Xrotation Yrotation
			JOINT RightElbow
			{
				OFFSET 0.000000 -0.243375 0.000000 
				CHANNELS 2 Zrotation Yrotation
				JOINT RightWrist
				{
					OFFSET 0.000000 -0.264825 0.000000 
					CHANNELS 2 Zrotation Xrotation
					End Site
					{
						OFFSET 0.006600 -0.176220 0.000990 
					}
				}
			}
		}
		JOINT LeftShoulder
		{
			OFFSET 0.019635 0.377685 -0.194865 
			CHANNELS 3 Zrotation Xrotation Yrotation
			JOINT LeftElbow
			{
				OFFSET 0.000000 -0.243375 0.000000 
				CHANNELS 2 Zrotation Yrotation
				JOINT LeftWrist
				{
					OFFSET 0.000000 -0.264825 0.000000 
					CHANNELS 2 Zrotation Xrotation
					End Site
					{
						OFFSET 0.006600 -0.176220 -0.000990 
					}
				}
			}
		}
	}
	JOINT RightHip
	{
		OFFSET 0.052140 -0.069960 0.075570 
		CHANNELS 3 Zrotation Xrotation Yrotation
		JOINT RightKnee
		{
			OFFSET 0.000000 -0.402270 0.000000 
			CHANNELS 1 Zrotation
			JOINT RightAnkle
			{
				OFFSET 0.000000 -0.404085 0.000000 
				CHANNELS 3 Zrotation Xrotation Yrotation
				End Site
				{
					OFFSET 0.204105 -0.089430 0.008415 
				}
			}
		}
	}
	JOINT LeftHip
	{
		OFFSET 0.052140 -0.069960 -0.075570 
		CHANNELS 3 Zrotation Xrotation Yrotation
		JOINT LeftKnee
		{
			OFFSET 0.000000 -0.402270 0.000000 
			CHANNELS 1 Zrotation
			JOINT LeftAnkle
			{
				OFFSET 0.000000 -0.404085 0.000000 
				CHANNELS 3 Zrotation Xrotation Yrotation
				End Site
				{
					OFFSET 0.204105 -0.089430 -0.008415 
				}
			}
		}
	}
}
MOTION
Frames: 22
Frame Time: 0.02
0.00039 5e-05 -0.0001 27.01698 -30.88747 -7.01189 49.60666 1.60981 -7.28226 3.16954 -0.76906 -0.77775 -21.00531 -11.34095 -2.66953 34.60162 92.75602 6.07342 1.55067 -21.84869 19.00136 -9.35728 45.85638 -123.10458 22.38857 -5.87634 44.73689 -0.58658 -15.66171 -19.21649 -6.1864 -1.63638 -3.00339 47.47711 1.28981 0.35717 -25.14473 -6.4517 2.87222 3.61898
0.00057 8e-05 -0.00023 26.91198 -30.87456 -7.00705 49.6601 1.61729 -7.25181 3.14758 -0.69474 -0.77995 -20.91139 -10.99321 -2.3636 34.71223 92.52693 6.03268 1.51199 -21.92934 18.54791 -9.76449 46.16854 -119.25539 20.69684 -5.13424 44.73489 -0.53902 -15.40333 -19.21484 -6.18557 -1.65396 -3.01359 47.43602 1.42082 0.92775 -25.13725 -6.4398 2.82498 3.59472
0.00075 0.00011 -0.00035 26.80737 -30.86167 -7.00226 49.71334 1.6247 -7.22161 3.12573 -0.62058 -0.78214 -20.8177 -10.64634 -2.05839 34.8225 92.29872 5.99218 1.47341 -22.00962 18.09527 -10.1713 46.48009 -115.42243 19.01241 -4.39525 44.73286 -0.49159 -15.14569 -19.21319 -6.18474 -1.67151 -3.02377 47.39501 1.55153 1.49704 -25.12978 -6.42793 2.77784 3.57051
0.00092 0.00014 -0.00048 26.7027 -30.84881 -6.99744 49.76661 1.63214 -7.19128 3.10384 -0.54647 -0.78433 -20.72406 -10.29962 -1.75336 34.93277 92.07038 5.95159 1.43484 -22.09001 17.64309 -10.57741 46.79134 -111.58595 17.32628 -3.65559 44.73086 -0.44417 -14.88809 -19.21154 -6.18391 -1.68903 -3.03394 47.35404 1.68215 2.06595 -25.12232 -6.41607 2.73073 3.54633
0.0011 0.00017 -0.00061 26.59759 -30.83594 -6.99258 49.82007 1.63967 -7.16065 3.08183 -0.47225 -0.78652 -20.63024 -9.95215 -1.44771 35.04334 91.84108 5.91072 1.39617 -22.17082 17.1904 -10.98355 47.10308 -107.73123 15.63191 -2.91243 44.72891 -0.39666 -14.62981 -19.20989 -6.18309 -1.70659 -3.04414 47.313 1.81302 2.63597 -25.11485 -6.40418 2.68356 3.5221
0.00127 0.0002 -0.00073 26.49406 -30.823 -6.98793 49.87286 1.64682 -7.13134 3.06032 -0.39821 -0.78871 -20.53681 -9.6066 -1.14347 35.15299 91.61514 5.87098 1.35779 -22.24994 16.73794 -11.39173 47.41422 -103.94397 13.96835 -2.18223 44.72671 -0.3494 -14.37352 -19.20824 -6.18222 -1.72409 -3.05429 47.27205 1.9434 3.20368 -25.10739 -6.39236 2.63649 3.49793
0.00145 0.00023 -0.00086 26.38749 -30.81022 -6.98285 49.92694 1.65472 -7.09943 3.03783 -0.32388 -0.79091 -20.44269 -9.25746 -0.83668 35.2644 91.38278 5.82904 1.31887 -22.33241 16.28532 -11.79543 47.72619 -100.02644 12.24522 -1.427 44.72501 -0.30167 -14.1135 -19.20659 -6.18144 -1.7417 -3.06451 47.23096 2.07463 3.77542 -25.09991 -6.38041 2.58925 3.47367
0.00162 0.00026 -0.00099 26.28367 -30.79729 -6.97816 49.97984 1.66194 -7.06986 3.0162 -0.24981 -0.79309 -20.34924 -8.91183 -0.53233 35.37415 91.1562 5.78909 1.28046 -22.41176 15.83318 -12.20312 48.03745 -96.22668 10.57594 -0.69438 44.72286 -0.25437 -13.85692 -19.20494 -6.18059 -1.7592 -3.07467 47.19001 2.20507 4.34342 -25.09245 -6.36858 2.54217 3.4495
0.00179 0.00029 -0.00111 26.18338 -30.78417 -6.97399 50.03127 1.66829 -7.04341 2.99578 -0.17603 -0.79527 -20.25641 -8.5695 -0.23043 35.48206 90.93717 5.75173 1.24261 -22.48741 15.38004 -12.61657 48.34783 -92.57945 8.97643 0.00888 44.72011 -0.20758 -13.60442 -19.2033 -6.17964 -1.77661 -3.08474 47.14918 2.33463 4.90725 -25.08501 -6.35689 2.49525 3.42541
0.00199 0.00033 -0.00124 26.06328 -30.77211 -6.96695 50.09107 1.67952 -6.99978 2.9689 -0.10051 -0.7975 -20.15939 -8.20521 0.08718 35.60113 90.67613 5.69992 1.20133 -22.5847 14.92787 -12.9996 48.66323 -88.08036 6.98735 0.87591 44.72067 -0.15782 -13.32807 -19.20161 -6.17922 -1.79465 -3.0953 47.1075 2.46949 5.49631 -25.07742 -6.34438 2.4473 3.40078
0.00213 0.00035 -0.00135 25.98467 -30.75784 -6.9659 50.13327 1.68055 -6.99187 2.95535 -0.02873 -0.79963 -20.07163 -7.88917 0.37055 35.69628 90.50281 5.6783 1.16742 -22.63611 14.47679 -13.44493 48.96799 -85.36189 5.8125 1.40072 44.71436 -0.11435 -13.10229 -19.20005 -6.1777 -1.81131 -3.10482 47.06771 2.59301 6.03126 -25.07019 -6.33362 2.40162 3.37733
0.00211 0.00034 -0.0014 26.02356 -30.7373 -6.98178 50.12616 1.65261 -7.08743 2.9811 0.03334 -0.80149 -20.00627 -7.69106 0.56846 35.7283 90.58076 5.74308 1.1529 -22.56233 14.00285 -14.07798 49.24323 -87.71685 6.95836 0.9497 44.688 -0.08821 -13.01456 -19.19859 -6.17302 -1.82442 -3.11171 47.0323 2.68644 6.42377 -25.06367 -6.32756 2.36127 3.3566
0.00203 0.00032 -0.00142 26.10345 -30.71455 -7.00356 50.10153 1.6146 -7.21783 3.01964 0.09162 -0.80324 -19.95084 -7.54409 0.73064 35.73595 90.74521 5.83761 1.14594 -22.44242 13.53488 -14.76988 49.5074 -91.82632 8.90638 0.16164 44.65495 -0.0684 -12.97779 -19.19732 -6.16728 -1.83609 -3.11754 46.99892 2.76826 6.76076 -25.05757 -6.32329 2.32335 3.33714
0.00197 0.0003 -0.00145 26.1622 -30.69298 -7.02234 50.08558 1.58189 -7.32874 3.05068 0.1512 -0.80503 -19.89277 -7.38314 0.90333 35.753 90.86272 5.91607 1.1361 -22.3431 13.08096 -15.42475 49.77742 -95.00908 10.4302 -0.44791 44.6258 -0.04565 -12.9181 -19.19615 -6.16212 -1.84825 -3.12372 46.96517 2.85476 7.11931 -25.05144 -6.31827 2.28488 3.31742
0.00191 0.00028 -0.00151 26.23158 -30.67076 -7.04253 50.06662 1.54621 -7.45524 3.0893 0.21227 -0.80687 -19.82655 -7.18313 1.09917 35.77664 91.01108 6.00495 1.12395 -22.24506 12.55591 -16.12575 50.0458 -98.73648 12.2052 -1.16424 44.59311 -0.0231 -12.8573 -19.19421 -6.15652 -1.86112 -3.13042 46.92916 2.94387 7.49357 -25.0446 -6.31299 2.24406 3.29637
0.00186 0.00026 -0.0015 26.28855 -30.64924 -7.06109 50.04971 1.51417 -7.55743 3.11461 0.26968 -0.80858 -19.77996 -7.07666 1.23952 35.78133 91.11759 6.0797 1.1184 -22.1337 12.18087 -16.74138 50.31267 -101.75164 13.65004 -1.73917 44.56608 -0.00171 -12.81114 -19.19392 -6.1516 -1.87215 -3.1358 46.89823 3.02467 7.82153 -25.03937 -6.30867 2.20874 3.27839
0.00182 0.00025 -0.00133 26.30115 -30.63135 -7.07438 50.04353 1.49596 -7.585 3.1043 0.31546 -0.80992 -19.78282 -7.21545 1.22526 35.73534 91.071 6.1038 1.12938 -21.99475 12.21489 -17.13406 50.59755 -102.31507 13.96071 -1.83105 44.55725 0.01873 -12.79036 -19.19789 -6.1488 -1.8785 -3.13781 46.88157 3.08634 8.03841 -25.0382 -6.30657 2.18799 3.26852
0.00179 0.00025 -0.00109 26.29988 -30.61398 -7.0857 50.0399 1.48146 -7.58689 3.07908 0.35839 -0.81115 -19.80561 -7.44669 1.15835 35.6722 90.98253 6.11354 1.14677 -21.84459 12.4003 -17.43361 50.87758 -102.11467 13.9173 -1.77133 44.55412 0.03813 -12.78288 -19.20355 -6.14675 -1.88303 -3.13852 46.86975 3.13981 8.20969 -25.03867 -6.30538 2.17274 3.26172
0.00175 0.00024 -0.00088 26.30496 -30.59568 -7.09743 50.03457 1.46448 -7.59961 3.05822 0.40393 -0.81247 -19.82067 -7.63594 1.12209 35.61944 90.92367 6.13259 1.16105 -21.70063 12.51888 -17.75807 51.14717 -102.29523 14.05135 -1.78684 44.54783 0.05749 -12.77115 -19.20863 -6.14438 -1.88831 -3.13982 46.85525 3.19646 8.4002 -25.03859 -6.30376 2.15497 3.25354
0.00172 0.00024 -0.00068 26.31116 -30.5804 -7.1113 50.03084 1.45074 -7.61633 3.04912 0.44284 -0.81361 -19.83008 -7.82686 1.05593 35.55387 90.82235 6.14057 1.17619 -21.54946 12.62954 -18.1585 51.47008 -102.37909 14.13849 -1.78509 44.54393 0.07862 -12.75418 -19.213 -6.14186 -1.8938 -3.14108 46.84302 3.25521 8.59649 -25.03775 -6.30223 2.13725 3.24527
0.00168 0.00023 -0.00045 26.31136 -30.55877 -7.12031 50.02471 1.43093 -7.61914 3.01044 0.49615 -0.81511 -19.85638 -8.03559 1.04033 35.5125 90.79943 6.16825 1.19127 -21.41242 12.79231 -18.3773 51.68051 -102.47911 14.23514 -1.78178 44.5362 0.09612 -12.7499 -19.21914 -6.13985 -1.89852 -3.14214 46.82697 3.30754 8.76889 -25.03882 -6.30075 2.12084 3.23798
0.00158 0.00019 -0.00014 26.29635 -30.52122 -7.11519 50.01048 1.39643 -7.58109 2.90506 0.5797 -0.81757 -19.92031 -8.27057 1.17355 35.53218 91.00011 6.25195 1.2028 -21.30823 13.06374 -18.11979 51.58551 -102.62563 14.38138 -1.78273 44.51915 0.10178 -12.78374 -19.2307 -6.13897 -1.90097 -3.14264 46.80097 3.34667 8.90248 -25.04514 -6.29888 2.10551 3.23206
